<svg width="177" height="55" viewBox="0 0 177 55" fill="none" xmlns="http://www.w3.org/2000/svg">
<path d="M29.6326 10.6603C28.9664 10.6233 28.2949 10.6233 27.634 10.5334C20.3005 9.51823 15.9596 14.0389 17.3237 21.309C19.4386 32.5288 27.3697 37.943 37.5319 40.7876C41.048 41.7711 44.8867 41.6124 48.9209 42.009C42.4439 45.0016 35.9722 45.1814 29.437 43.4842C18.7301 40.6713 10.6246 31.0324 10.2016 21.0711C9.99543 16.2543 11.9518 12.6113 16.0865 10.306C20.5596 7.81041 25.1595 7.91087 29.6326 10.6603Z" fill="black"/>
<path d="M13.9028 39.4869C7.632 34.8605 1.8635 29.7793 0.367184 21.6421C-1.32477 12.4315 2.88396 5.83293 11.8883 3.08879C21.1888 0.249485 31.9802 4.20442 36.7389 12.2623C37.4051 13.378 37.8915 14.5994 38.6317 16.1168C35.803 13.5789 33.5929 11.0568 30.8858 9.27499C21.4108 3.05178 9.3874 6.8058 6.41591 16.7777C5.00419 21.5099 6.04051 26.057 8.26649 30.2869C9.95315 33.4593 12.0152 36.4255 13.9028 39.4869Z" fill="black"/>
<path d="M67.9554 31.1382V24.7141H73.4701C73.4701 26.9453 73.8455 29.3511 73.3855 31.5876C72.6664 35.0825 69.7637 35.5214 66.6653 35.4209C63.7942 35.3311 61.4414 34.2577 61.3145 31.2757C61.0448 24.9308 61.0131 18.5173 61.3145 12.1566C61.4572 8.82028 63.9951 7.1812 67.5853 7.24994C71.1754 7.31867 73.2163 9.01063 73.5758 12.4738C73.7239 13.9332 73.5758 15.4189 73.5758 17.1479H68.3308C68.188 15.2127 68.0506 13.3621 67.9131 11.5063H67.0777V31.0694L67.9554 31.1382Z" fill="black"/>
<path d="M26.0161 12.0826C23.4781 14.7791 24.0492 17.2166 25.1912 19.7122C28.7179 27.4159 37.0878 32.4019 44.1411 30.9426C50.7979 29.5731 53.2248 25.2428 50.9301 18.8398C50.671 18.1207 50.4383 17.3964 50.0682 16.3019C54.2981 20.2357 55.4983 25.2005 53.4786 29.4832C51.3266 34.0462 45.5475 37.1023 40.0328 36.5736C31.3193 35.7329 23.0499 28.6954 20.8398 20.2357C19.7611 16.101 21.4214 13.0502 26.0161 12.0826Z" fill="black"/>
<path d="M87.7459 34.7283H82.7758V17.0527L81.4804 17.0157V34.6807H76.6213V13.4943H87.7248L87.7459 34.7283Z" fill="black"/>
<path d="M33.926 24.1536C41.4181 25.9354 44.1094 23.0961 42.1319 16.3865C39.5253 7.5249 30.817 0.8787 21.1676 0.397551C20.0784 0.33939 18.9786 0.397553 17.8947 0.254794C28.4694 -1.04061 37.2411 2.66582 44.5482 9.95179C46.3551 11.8292 47.6938 14.1062 48.4556 16.598C48.9469 18.3122 48.8675 20.1397 48.2295 21.8049C47.5915 23.4701 46.4293 24.8827 44.9184 25.8297C41.7459 27.7807 38.4149 27.3789 33.926 24.1536Z" fill="#FF6600"/>
<path d="M59.6912 49.8819H61.7004C61.9066 50.6961 62.6627 51.1456 63.8154 51.1456C65.116 51.1456 65.8404 50.5693 65.8404 49.7339C65.8404 48.7927 65.1742 48.3644 63.8259 48.3644H62.3666V46.9368H63.7889C64.931 46.9368 65.5285 46.5244 65.5285 45.6996C65.5285 44.9699 64.9997 44.4624 63.8206 44.4624C62.6416 44.4624 61.9859 44.9118 61.8537 45.6467H59.9027C60.1089 43.9653 61.5894 42.9185 63.8101 42.9185C66.2158 42.9185 67.5112 43.9389 67.5112 45.5093C67.5166 45.9751 67.3621 46.4287 67.0734 46.7944C66.7848 47.16 66.3794 47.4156 65.925 47.5184V47.5925C67.1887 47.8674 67.8602 48.6499 67.8602 49.7074C67.8602 51.4998 66.274 52.6842 63.8048 52.6842C61.4836 52.7053 59.871 51.6479 59.6912 49.8819Z" fill="#FF6600"/>
<path d="M69.2666 49.8449C69.2666 48.1952 70.5937 47.2012 72.9677 47.0532L75.6854 46.8998V46.1755C75.6854 45.118 74.9399 44.4941 73.6974 44.4941C72.4549 44.4941 71.7781 45.0228 71.5825 45.8794H69.6632C69.7742 44.1716 71.3022 42.9185 73.7556 42.9185C76.2089 42.9185 77.6999 44.1293 77.6999 46.0221V52.5256H75.7489V50.9764H75.7013C75.3733 51.5104 74.9114 51.9495 74.3615 52.25C73.8115 52.5505 73.1925 52.702 72.5659 52.6895C70.6254 52.7053 69.2666 51.5368 69.2666 49.8449ZM75.6696 49.0042V48.2587L73.2268 48.4014C72.0107 48.4807 71.3234 48.9936 71.3234 49.8026C71.3234 50.6115 72.0372 51.1667 73.1317 51.1667C74.5592 51.1561 75.6696 50.2203 75.6696 49.0042Z" fill="#FF6600"/>
<path d="M79.8413 43.0876H84.3514C86.2866 43.0876 87.4551 44.0023 87.4551 45.4933C87.4468 45.9745 87.2746 46.4385 86.967 46.8086C86.6594 47.1787 86.2347 47.4328 85.7632 47.529V47.603C86.3304 47.6313 86.8654 47.8754 87.2586 48.2853C87.6518 48.6952 87.8734 49.2399 87.8781 49.8078C87.8781 51.468 86.5351 52.5255 84.3832 52.5255H79.8202L79.8413 43.0876ZM81.8505 44.494V46.9738H83.7381C84.8855 46.9738 85.4618 46.5508 85.4618 45.7154C85.4618 44.88 84.9331 44.494 83.9338 44.494H81.8505ZM81.8505 48.3274V51.1191H84.0924C85.245 51.1191 85.8689 50.6326 85.8689 49.7285C85.8689 48.8244 85.208 48.3274 83.8703 48.3274H81.8505Z" fill="#FF6600"/>
<path d="M89.2634 47.8093C89.2634 44.7743 91.1404 42.9185 93.9745 42.9185C96.8085 42.9185 98.6802 44.7743 98.6802 47.8093C98.6802 50.8442 96.8138 52.7053 93.9745 52.7053C91.1352 52.7053 89.2634 50.8495 89.2634 47.8093ZM96.6023 47.8093C96.6023 45.6943 95.5448 44.5152 93.9586 44.5152C92.3724 44.5152 91.3149 45.7155 91.3149 47.8093C91.3149 49.903 92.3724 51.1086 93.9586 51.1086C95.5448 51.1086 96.6023 49.9083 96.6023 47.8093Z" fill="#FF6600"/>
<path d="M99.3358 55V50.9922H100.139C100.869 50.5639 101.197 49.406 101.292 48.1476L101.652 43.0876H108.895V50.9922H110.434V55H108.546V52.5255H101.218V55H99.3358ZM106.86 44.6209H103.407L103.132 48.2269C103.124 49.1781 102.855 50.1089 102.355 50.9181V50.9922H106.86V44.6209Z" fill="#FF6600"/>
<path d="M95.677 24.6401H102.286V16.947C102.286 16.947 102.149 12.6272 96.7503 12.6272C91.352 12.6272 91.2145 16.947 91.2145 16.947V30.583C91.2145 30.583 90.9871 35.8704 96.1846 35.8704C102.286 35.8704 102.286 31.5295 102.286 31.5295V26.7973H97.4218V30.3081C97.4218 30.3081 97.5593 32.2697 96.6129 32.2538C95.4867 32.2538 95.6717 30.7469 95.6717 30.7469L95.677 24.6401ZM95.2012 21.7373V17.3171C95.2895 16.9684 95.489 16.658 95.7694 16.4329C96.0499 16.2077 96.3961 16.0801 96.7556 16.0693C97.1435 16.0309 97.5313 16.1428 97.8392 16.3818C98.1471 16.6208 98.3516 16.9688 98.4106 17.3541V21.7373H95.2012Z" fill="black" stroke="black" stroke-width="0.5" stroke-miterlimit="10"/>
<path d="M105.723 13.4784H110.587V30.4455C110.587 30.4455 110.508 31.6087 111.465 31.6457C112.422 31.6827 112.343 30.3979 112.343 30.3979V13.4784H116.932V31.6616H118.053V39.0639H113.014V32.92C113.014 32.92 111.576 35.3945 108.742 35.3945C105.908 35.3945 105.723 31.6616 105.723 31.6616V13.4784Z" fill="black"/>
<path d="M120.929 35.0719H125.651V15.6991L128.755 35.0719H133.413L136.585 15.6991L136.992 35.0719H141.513V8.27563H134.021L131.224 27.2414L128.755 8.27563H120.929V35.0719Z" fill="black"/>
<path d="M154.953 35.257L154.863 16.5398C154.863 16.5398 153.965 12.9497 149.576 12.9497C143.76 12.9497 144.236 19.4849 144.172 20.9495C145.473 20.9495 148.582 20.9495 148.582 20.9495V17.4387C148.582 17.4387 148.55 16.2754 149.566 16.3125C149.708 16.3075 149.849 16.3312 149.982 16.3821C150.114 16.433 150.235 16.5101 150.337 16.6088C150.44 16.7075 150.521 16.8257 150.576 16.9565C150.632 17.0873 150.66 17.2279 150.66 17.3699V21.1821C150.66 21.1821 144.669 22.4828 144.051 28.5844C143.522 33.8718 145.309 35.1777 147.128 35.5637C149.053 35.9761 150.66 33.5122 150.66 33.5122V35.257H154.953ZM149.608 32C149.328 31.9818 149.065 31.8603 148.869 31.6591C148.674 31.4578 148.56 31.1912 148.55 30.9108C148.438 29.3125 148.473 27.7071 148.656 26.1152C148.757 25.3538 149.391 23.2125 150.702 24.455V31.0272C150.665 31.2927 150.534 31.5363 150.334 31.7145C150.133 31.8927 149.876 31.9939 149.608 32Z" fill="black"/>
<path d="M158.755 13.4784H163.514V30.3979C163.514 30.3979 163.514 31.4871 164.28 31.4818C165.221 31.4818 165.269 30.3556 165.269 30.3556V13.4784H169.996V30.308C169.996 30.308 170.028 31.4871 170.889 31.4818C171.032 31.4849 171.174 31.4567 171.305 31.3993C171.436 31.3419 171.553 31.2566 171.648 31.1494C171.742 31.0422 171.813 30.9156 171.853 30.7785C171.894 30.6414 171.904 30.4971 171.884 30.3556V13.4784H176.743V34.8552H171.884V32.8301C171.884 32.8301 170.667 35.5742 168.103 35.5742C165.539 35.5742 165.359 32.8301 165.359 32.8301C165.359 32.8301 164.053 35.5742 161.758 35.5742C161.003 35.6036 160.267 35.338 159.704 34.8337C159.142 34.3294 158.797 33.626 158.744 32.8724L158.755 13.4784Z" fill="black"/>
</svg>
